<svg width="231" height="36" viewBox="0 0 231 36" fill="none" xmlns="http://www.w3.org/2000/svg">
<path d="M31.9664 14.509L16.9043 22.7152L0.775725 13.9474L0 14.353V20.7184L16.9043 29.8917L31.9664 21.7168V25.0867L16.9043 33.2929L0.775725 24.525L0 24.9306V26.0226L16.9043 35.1962L33.7763 26.0226V19.6574L33.0006 19.2518L16.9043 27.9884L1.81002 19.8135V16.4436L16.9043 24.6185L33.7763 15.4451V9.17346L32.936 8.70542L16.9043 17.4108L2.58575 9.67269L16.9043 1.90333L28.6695 8.2998L29.7039 7.73816V6.95809L16.9043 0L0 9.17346V10.1719L16.9043 19.3453L31.9664 11.1392V14.509Z" fill="#EE3D2C"/>
<path d="M65.3528 29.9805V1.96094H60.8924V12.4449C60.8924 12.6009 60.7954 12.7257 60.6338 12.7881C60.4722 12.8505 60.3106 12.7881 60.2136 12.6945C58.6945 10.9784 56.335 10.0111 53.7493 10.0111C48.2222 10.0111 43.8911 14.5042 43.8911 20.2454C43.8911 23.0536 44.893 25.6434 46.7355 27.5467C48.5778 29.4502 51.0665 30.4797 53.7493 30.4797C56.3028 30.4797 58.6622 29.4502 60.2136 27.6715C60.3106 27.5467 60.5045 27.5156 60.6338 27.5467C60.7954 27.6092 60.8924 27.734 60.8924 27.8901V29.9805H65.3528ZM54.7189 26.5795C51.1636 26.5795 48.3838 23.8024 48.3838 20.2454C48.3838 16.6884 51.1636 13.9114 54.7189 13.9114C58.2742 13.9114 61.054 16.6884 61.054 20.2454C61.054 23.8024 58.2742 26.5795 54.7189 26.5795Z" fill="white"/>
<path d="M89.2067 29.985V10.4836H84.7787V12.4494C84.7787 12.6053 84.6816 12.7302 84.52 12.7926C84.3584 12.855 84.1968 12.7926 84.0998 12.6678C82.6131 10.9516 80.2858 9.98438 77.6355 9.98438C72.1084 9.98438 67.7773 14.4775 67.7773 20.2187C67.7773 25.9598 72.1084 30.453 77.6355 30.453C80.189 30.453 82.5484 29.4233 84.0998 27.6137C84.1968 27.4889 84.3907 27.4577 84.52 27.4889C84.6816 27.5512 84.7787 27.676 84.7787 27.8321V29.9537H89.2067V29.985ZM78.6374 26.584C75.0821 26.584 72.3024 23.8069 72.3024 20.2499C72.3024 16.6929 75.0821 13.9158 78.6374 13.9158C82.1929 13.9158 84.9725 16.6929 84.9725 20.2499C84.9725 23.8069 82.1929 26.584 78.6374 26.584Z" fill="white"/>
<path d="M127.12 29.985V10.4836H122.692V12.4494C122.692 12.6053 122.595 12.7302 122.434 12.7926C122.272 12.855 122.11 12.7926 122.013 12.6678C120.527 10.9516 118.199 9.98438 115.549 9.98438C109.99 9.98438 105.691 14.4775 105.691 20.2499C105.691 26.0223 110.022 30.4842 115.549 30.4842C118.103 30.4842 120.462 29.4545 122.013 27.6448C122.11 27.52 122.304 27.4889 122.434 27.52C122.595 27.5825 122.692 27.7073 122.692 27.8633V29.985H127.12ZM116.551 26.584C112.996 26.584 110.216 23.8069 110.216 20.2499C110.216 16.6929 112.996 13.9158 116.551 13.9158C120.106 13.9158 122.886 16.6929 122.886 20.2499C122.886 23.8069 120.106 26.584 116.551 26.584Z" fill="white"/>
<path d="M135.234 27.6715C135.266 27.6715 135.331 27.6405 135.363 27.6405C135.46 27.6405 135.59 27.7028 135.654 27.7653C137.173 29.4813 139.533 30.4486 142.119 30.4486C147.646 30.4486 151.977 25.9555 151.977 20.2142C151.977 17.406 150.975 14.8163 149.133 12.9129C147.29 11.0096 144.801 9.97992 142.119 9.97992C139.565 9.97992 137.206 11.0096 135.654 12.7881C135.557 12.9129 135.396 12.9441 135.234 12.9129C135.073 12.8505 134.975 12.7257 134.975 12.5697V1.96094H130.515V29.9805H134.975V28.0149C134.975 27.8588 135.073 27.734 135.234 27.6715ZM134.782 20.2454C134.782 16.6884 137.561 13.9114 141.117 13.9114C144.672 13.9114 147.452 16.6884 147.452 20.2454C147.452 23.8024 144.672 26.5795 141.117 26.5795C137.561 26.5795 134.782 23.7714 134.782 20.2454Z" fill="white"/>
<path d="M164.873 14.4855C165.293 14.4855 165.681 14.5167 165.939 14.5791V10.1483C165.777 10.1171 165.487 10.0859 165.196 10.0859C162.868 10.0859 160.735 11.2404 159.604 13.0814C159.507 13.2374 159.345 13.2998 159.184 13.2374C159.022 13.2062 158.893 13.0501 158.893 12.8942V10.4916H154.465V30.0242H158.925V21.4124C158.925 17.1376 161.188 14.4855 164.873 14.4855Z" fill="white"/>
<path d="M173.277 10.4844H168.752V30.0169H173.277V10.4844Z" fill="white"/>
<path d="M170.948 2.00781C169.429 2.00781 168.201 3.19349 168.201 4.66C168.201 6.1265 169.429 7.3122 170.948 7.3122C172.467 7.3122 173.695 6.1265 173.695 4.66C173.695 3.19349 172.467 2.00781 170.948 2.00781Z" fill="white"/>
<path d="M186.528 9.98438C180.323 9.98438 175.829 14.2903 175.829 20.2499C175.829 23.1517 176.897 25.7415 178.803 27.6137C180.743 29.4858 183.457 30.5155 186.495 30.5155C189.017 30.5155 190.956 30.0475 194.642 27.4264L192.088 24.8366C190.277 25.9911 188.596 26.5528 186.949 26.5528C183.199 26.5528 180.387 23.8382 180.387 20.2499C180.387 16.6617 183.199 13.9471 186.949 13.9471C188.726 13.9471 190.375 14.5087 192.024 15.6632L194.867 13.0734C191.539 10.3276 188.532 9.98438 186.528 9.98438Z" fill="white"/>
<path d="M202.495 21.4156C202.56 21.3531 202.657 21.322 202.755 21.322H202.786C202.884 21.322 202.98 21.3844 203.078 21.4468L210.221 29.9962H215.716L206.472 19.2002C206.341 19.0442 206.341 18.8258 206.504 18.701L215.004 10.4948H209.542L202.205 17.609C202.108 17.7025 201.947 17.7338 201.785 17.7025C201.656 17.6401 201.558 17.5153 201.558 17.3594V2.00781H197.066V30.0274H201.526V22.414C201.526 22.3205 201.558 22.1957 201.656 22.1332L202.495 21.4156Z" fill="white"/>
<path d="M222.984 30.4841C226.637 30.4841 230.354 28.3312 230.354 24.2438C230.354 21.5604 228.609 19.7194 225.054 18.5961L222.628 17.8161C220.981 17.2856 220.204 16.5368 220.204 15.5071C220.204 14.3214 221.304 13.5102 222.855 13.5102C224.342 13.5102 225.666 14.4462 226.508 16.0688L230.096 14.1966C228.771 11.5756 226.022 9.95312 222.855 9.95312C218.846 9.95312 215.939 12.4493 215.939 15.8503C215.939 18.5649 217.62 20.3747 221.077 21.4356L223.567 22.2156C225.312 22.7461 226.056 23.4324 226.056 24.5246C226.056 26.1783 224.471 26.7711 223.113 26.7711C221.304 26.7711 219.688 25.6478 218.913 23.8069L215.26 25.6791C216.456 28.6433 219.396 30.4841 222.984 30.4841Z" fill="white"/>
<path d="M101.62 30.2887C103.042 30.2887 104.303 30.1638 105.014 30.0701V26.3258C104.432 26.3883 103.398 26.4506 102.783 26.4506C100.973 26.4506 99.5836 26.1387 99.5836 22.3632V14.3442C99.5836 14.1258 99.7452 13.9698 99.9714 13.9698H104.335V10.4439H99.9714C99.7452 10.4439 99.5836 10.2879 99.5836 10.0695V4.45312H95.1231V10.1007C95.1231 10.3191 94.9615 10.4752 94.7353 10.4752H91.6323V14.001H94.7353C94.9615 14.001 95.1231 14.157 95.1231 14.3754V23.4553C95.1231 30.2887 99.8421 30.2887 101.62 30.2887Z" fill="white"/>
</svg>
