<svg width="243" height="60" viewBox="0 0 243 60" fill="none" xmlns="http://www.w3.org/2000/svg">
<path d="M103.363 59.333V53.0114L130.247 21.1852L132.122 24.6189H103.847V16.6229H140.293V22.9445L113.409 54.7708L111.372 51.337H141.026V59.333H103.363Z" fill="white"/>
<path d="M168.233 59.9033C163.39 59.9033 159.155 58.9568 155.529 57.064C151.903 55.1712 149.097 52.5746 147.11 49.2621C145.123 45.9618 144.13 42.2004 144.13 37.9901C144.13 33.7798 145.099 29.9577 147.036 26.6695C148.973 23.3935 151.643 20.8211 155.045 18.9526C158.448 17.084 162.334 16.1497 166.693 16.1497C171.052 16.1497 174.727 17.0598 178.055 18.8676C181.383 20.6755 183.991 23.2357 185.903 26.5482C187.803 29.8485 188.759 33.7434 188.759 38.2206C188.759 38.6453 188.747 39.1306 188.722 39.6645C188.697 40.1984 188.647 40.708 188.598 41.1812H152.239V34.5442H183.208L179.21 36.619C179.26 34.168 178.75 32.0083 177.658 30.1397C176.565 28.2711 175.087 26.803 173.2 25.7352C171.325 24.6675 169.152 24.1336 166.705 24.1336C164.259 24.1336 162.011 24.6675 160.124 25.7352C158.249 26.803 156.771 28.2833 155.716 30.1761C154.648 32.0689 154.126 34.2894 154.126 36.8495V38.4512C154.126 41.0114 154.722 43.2803 155.927 45.246C157.119 47.2237 158.808 48.7404 160.993 49.8082C163.166 50.8759 165.675 51.4098 168.506 51.4098C170.952 51.4098 173.163 51.0336 175.125 50.2935C177.087 49.5534 178.825 48.3764 180.352 46.7748L185.829 52.9386C183.867 55.1833 181.408 56.8941 178.44 58.0954C175.472 59.2966 172.082 59.8911 168.27 59.8911L168.233 59.9033Z" fill="white"/>
<path d="M196.508 59.333V0H206.715V26.5482L205.896 37.9052L206.218 49.2621V59.333H196.495H196.508ZM220.697 59.8911C216.997 59.8911 213.694 59.0903 210.813 57.4887C207.92 55.8871 205.647 53.4725 203.996 50.2571C202.332 47.0296 201.5 42.9406 201.5 37.978C201.5 33.0153 202.356 28.8657 204.07 25.6624C205.784 22.4592 208.106 20.081 211.012 18.5036C213.93 16.9263 217.158 16.1497 220.697 16.1497C224.994 16.1497 228.794 17.0598 232.097 18.8676C235.387 20.6755 238.008 23.2115 239.945 26.4632C241.882 29.715 242.851 33.5492 242.851 37.978C242.851 42.4067 241.882 46.2409 239.945 49.4927C238.008 52.7445 235.4 55.2925 232.097 57.1247C228.806 58.969 225.006 59.879 220.697 59.879V59.8911ZM219.555 51.337C222.001 51.337 224.199 50.8031 226.136 49.7354C228.073 48.6676 229.613 47.1266 230.756 45.1003C231.898 43.074 232.469 40.6959 232.469 37.978C232.469 35.2601 231.898 32.8212 230.756 30.8192C229.613 28.8171 228.073 27.2883 226.136 26.2206C224.199 25.1528 222.014 24.6189 219.555 24.6189C217.096 24.6189 214.898 25.1528 212.936 26.2206C210.974 27.2883 209.422 28.8171 208.28 30.8192C207.137 32.8212 206.566 35.1994 206.566 37.978C206.566 40.7565 207.137 43.074 208.28 45.1003C209.422 47.1266 210.974 48.6676 212.936 49.7354C214.898 50.8031 217.109 51.337 219.555 51.337Z" fill="white"/>
<path d="M34.5087 0C34.5336 0 34.5584 0 34.5708 0C34.5708 0 34.5708 0 34.5832 0C36.8308 0.0606677 38.7556 1.35896 39.6621 3.22752L46.9512 15.5795L54.2528 3.20325C54.2528 3.20325 54.2653 3.17899 54.2777 3.15472C54.2777 3.15472 54.2777 3.14259 54.2901 3.13045C54.2901 3.13045 54.2901 3.10618 54.3025 3.10618C54.3025 3.10618 54.3025 3.09405 54.3149 3.08192C54.3149 3.06978 54.3273 3.05765 54.3398 3.03338C54.3398 3.03338 54.3398 3.02125 54.3522 3.00912C54.3522 3.00912 54.3522 2.99698 54.3646 2.98485C54.3646 2.98485 54.3646 2.97272 54.377 2.96058C54.377 2.94845 54.3894 2.93632 54.4018 2.92418C54.4018 2.92418 54.4018 2.91205 54.4143 2.89991C54.4143 2.89991 54.4143 2.88778 54.4267 2.87565C54.4267 2.87565 54.4267 2.86351 54.4391 2.85138C54.4391 2.85138 54.4515 2.82711 54.4639 2.81498C54.4639 2.81498 54.4764 2.79071 54.4888 2.77858C54.4888 2.77858 54.4888 2.76645 54.5012 2.75431C54.5012 2.75431 54.5012 2.74218 54.5136 2.73005C54.5136 2.73005 54.5136 2.70578 54.526 2.70578C54.526 2.69364 54.5384 2.68151 54.5509 2.66938C54.5509 2.66938 54.5509 2.65724 54.5633 2.64511C54.5633 2.64511 54.5633 2.63298 54.5757 2.62084C54.5757 2.62084 54.5757 2.60871 54.5881 2.59658C54.5881 2.58444 54.6005 2.57231 54.6129 2.56018C54.6129 2.56018 54.6254 2.53591 54.6378 2.53591C54.6378 2.53591 54.6378 2.52377 54.6502 2.51164C54.6502 2.51164 54.6502 2.49951 54.6626 2.48737C54.6626 2.48737 54.675 2.46311 54.6875 2.45097C54.6875 2.45097 54.6999 2.42671 54.7123 2.41457C54.7123 2.41457 54.7123 2.40244 54.7247 2.39031C54.7247 2.39031 54.7247 2.37817 54.7371 2.36604C54.7371 2.36604 54.7371 2.35391 54.7495 2.34177C54.7495 2.32964 54.7744 2.3175 54.7744 2.30537C54.7744 2.30537 54.7868 2.29324 54.7992 2.2811C54.7992 2.2811 54.7992 2.26897 54.8116 2.25684C54.8116 2.25684 54.824 2.2447 54.8365 2.23257C54.8365 2.23257 54.8613 2.2083 54.8613 2.19617C54.8613 2.19617 54.8737 2.18404 54.8861 2.1719C54.8861 2.1719 54.8861 2.15977 54.8986 2.14764C54.8986 2.14764 54.911 2.1355 54.9234 2.12337C54.9234 2.12337 54.9358 2.11123 54.9482 2.0991C54.9482 2.08697 54.9731 2.07483 54.9855 2.0627C54.9855 2.0627 54.9855 2.05057 54.9979 2.03843C54.9979 2.03843 55.0103 2.0263 55.0227 2.01417C55.0227 2.01417 55.0227 2.00203 55.0351 1.9899C55.0351 1.97777 55.06 1.96563 55.0724 1.9535C55.0724 1.9535 55.0724 1.94137 55.0848 1.92923C55.0848 1.92923 55.0972 1.9171 55.1097 1.90496C55.1097 1.90496 55.1097 1.89283 55.1221 1.8807C55.1221 1.86856 55.1469 1.85643 55.1593 1.8443C55.1593 1.8443 55.1593 1.83216 55.1717 1.82003C55.1717 1.82003 55.1842 1.8079 55.1966 1.79576C55.1966 1.79576 55.1966 1.79576 55.209 1.78363C55.2214 1.7715 55.2338 1.75936 55.2463 1.74723C55.2463 1.74723 55.2462 1.74723 55.2587 1.7351C55.2587 1.7351 55.2711 1.72296 55.2835 1.71083C55.2835 1.71083 55.2835 1.71083 55.2959 1.69869C55.3083 1.68656 55.3208 1.67443 55.3332 1.66229C55.3332 1.66229 55.3332 1.66229 55.3456 1.65016C55.3456 1.65016 55.358 1.63803 55.3704 1.62589C55.3704 1.62589 55.3704 1.62589 55.3828 1.61376C55.3828 1.61376 55.3953 1.60163 55.4077 1.58949C55.4201 1.57736 55.4449 1.55309 55.4573 1.54096C55.4573 1.54096 55.4573 1.54096 55.4698 1.52883C55.4698 1.52883 55.4822 1.51669 55.4946 1.50456C55.4946 1.50456 55.4946 1.50456 55.507 1.50456C55.5194 1.49242 55.5443 1.48029 55.5567 1.45602C55.5567 1.45602 55.5567 1.45602 55.5691 1.44389C55.5691 1.44389 55.5815 1.43176 55.5939 1.41962C55.5939 1.41962 55.5939 1.41962 55.6064 1.41962C55.6188 1.40749 55.6436 1.39536 55.656 1.38322C55.656 1.38322 55.656 1.38322 55.6684 1.38322C55.6684 1.38322 55.6933 1.37109 55.6933 1.35896C55.6933 1.35896 55.6933 1.35896 55.7057 1.35896C55.7181 1.34682 55.743 1.33469 55.7554 1.32256C55.7554 1.32256 55.7554 1.32256 55.7678 1.32256C55.7678 1.32256 55.7926 1.31042 55.7926 1.29829C55.7926 1.29829 55.7926 1.29829 55.805 1.29829C55.8299 1.28615 55.8423 1.27402 55.8671 1.24975C55.8671 1.24975 55.892 1.23762 55.9044 1.22549C55.9044 1.22549 55.9044 1.22549 55.9168 1.22549C55.9541 1.20122 55.9789 1.17695 56.0161 1.15269C56.0161 1.15269 56.0161 1.15269 56.0286 1.15269C56.0658 1.12842 56.1031 1.10415 56.1279 1.07988C56.1652 1.05562 56.2024 1.03135 56.2397 1.00708C56.2397 1.00708 56.2645 0.99495 56.2769 0.982816C56.3018 0.970683 56.3266 0.958549 56.3514 0.934282C56.3638 0.934282 56.3763 0.922149 56.3887 0.910015C56.4135 0.897882 56.4383 0.885748 56.4632 0.873614C56.4756 0.873614 56.488 0.861481 56.5004 0.849347C56.5377 0.82508 56.5749 0.812947 56.6246 0.78868C56.6619 0.764413 56.6991 0.752279 56.7488 0.728012C56.786 0.703745 56.8357 0.691611 56.873 0.667344C56.9102 0.643077 56.9599 0.630944 56.9971 0.606677C57.0344 0.594543 57.0841 0.570276 57.1213 0.558143C57.2703 0.497475 57.4193 0.448941 57.5808 0.400407C57.6304 0.388273 57.6677 0.37614 57.7174 0.364006C57.767 0.351873 57.8167 0.339739 57.854 0.327605C58.152 0.254804 58.4624 0.20627 58.7853 0.182003C58.7853 0.182003 58.8846 0.182003 58.9343 0.182003C58.9343 0.182003 58.984 0.182003 59.0088 0.182003C59.0088 0.182003 59.0585 0.182003 59.0833 0.182003C59.0833 0.182003 59.133 0.182003 59.1578 0.182003C59.1827 0.182003 59.2075 0.182003 59.2323 0.182003C59.2323 0.182003 59.2447 0.182003 59.2572 0.182003H34.2231C34.2231 0.182003 34.2728 0.182003 34.2976 0.182003L34.5087 0Z" fill="#717D7A"/>
<path d="M68.8188 53.5331C68.707 52.6595 68.3966 51.8587 67.9371 51.155L39.6745 3.22752C38.7556 1.35896 36.8308 0.0606677 34.5956 0C34.5956 0 34.5956 0 34.5832 0C34.5584 0 34.5336 0 34.5211 0C34.5211 0 34.4715 0 34.4466 0C34.4466 0 34.4342 0 34.4218 0C34.3225 0 34.2231 0 34.1238 0C31.9631 0.121335 30.1253 1.39536 29.2312 3.20325L0.931326 51.1428C0.434619 51.883 0.124177 52.7445 0.0248354 53.6788C0.0248354 53.6788 0.0248354 53.6909 0.0248354 53.703C0.0248354 53.703 0.0248354 53.7273 0.0248354 53.7394C0.0124177 53.9093 0 54.0792 0 54.2369C0 54.2369 0 54.249 0 54.2612V54.2854C0.0124177 56.0569 0.85682 57.6343 2.17309 58.6656C3.00508 59.3208 4.03575 59.7698 5.20301 59.879C5.21542 59.879 5.24026 59.879 5.25268 59.879C5.41411 59.8911 5.57554 59.9033 5.73697 59.9033C5.73697 59.9033 5.7618 59.9033 5.77422 59.9033C5.77422 59.9033 5.77422 59.9033 5.78664 59.9033H63.0446C63.0446 59.9033 63.057 59.9033 63.0694 59.9033H63.0942C63.2432 59.9033 63.3922 59.9033 63.5413 59.879C63.5413 59.879 63.5537 59.879 63.5661 59.879C64.7706 59.7698 65.8385 59.3087 66.6953 58.6292C67.9495 57.6222 68.7691 56.1176 68.8312 54.4189C68.8312 54.1277 68.8312 53.8244 68.7939 53.521L68.8188 53.5331Z" fill="#3B4240"/>
<path d="M93.8652 53.5331C93.7535 52.6595 93.443 51.8587 92.9836 51.155L64.7085 3.22752C63.8144 1.39536 61.9518 0.109202 59.7787 0C59.7663 0 59.7414 0 59.7166 0H59.6918C59.6918 0 59.6545 0 59.6297 0C59.6297 0 59.6297 0 59.6173 0C59.6173 0 59.6049 0 59.5924 0C59.58 0 59.5552 0 59.5428 0C59.5179 0 59.4931 0 59.4683 0C59.4683 0 59.4558 0 59.4434 0C59.4434 0 59.3938 0 59.3689 0C59.3441 0 59.3192 0 59.2944 0C59.2944 0 59.2447 0 59.2199 0C59.2199 0 59.1702 0 59.1454 0C59.0957 0 59.0461 0 58.9964 0C58.6735 0.0242671 58.3631 0.0728012 58.0651 0.145602C58.0154 0.145602 57.9657 0.169869 57.9285 0.182003C57.8788 0.194137 57.8291 0.20627 57.7919 0.218404C57.6429 0.266938 57.4814 0.315472 57.3324 0.37614C57.2827 0.388273 57.2455 0.41254 57.2082 0.424674C57.171 0.436807 57.1213 0.461074 57.0841 0.485341C57.0468 0.509608 56.9971 0.521742 56.9599 0.546009C56.9226 0.570276 56.873 0.58241 56.8357 0.606677C56.7985 0.630944 56.7612 0.643077 56.7115 0.667344C56.6991 0.667344 56.6867 0.679478 56.6743 0.691611C56.6743 0.691611 56.6246 0.728012 56.5998 0.740146C56.5874 0.740146 56.5749 0.752279 56.5625 0.764413C56.5377 0.776546 56.5129 0.78868 56.488 0.812947C56.488 0.812947 56.4632 0.82508 56.4508 0.837214C56.4135 0.861481 56.3763 0.885748 56.339 0.910015C56.3018 0.934282 56.2645 0.958549 56.2397 0.982816C56.2397 0.982816 56.2397 0.982816 56.2272 0.982816C56.19 1.00708 56.1652 1.03135 56.1279 1.05562C56.1279 1.05562 56.1279 1.05562 56.1155 1.05562C56.1155 1.05562 56.0906 1.06775 56.0782 1.07988C56.0534 1.09202 56.041 1.10415 56.0161 1.12842C56.0161 1.12842 56.0161 1.12842 56.0037 1.12842C56.0037 1.12842 55.9789 1.14055 55.9789 1.15269C55.9789 1.15269 55.9789 1.15269 55.9665 1.15269C55.9541 1.16482 55.9292 1.17695 55.9168 1.18909C55.9168 1.18909 55.9168 1.18909 55.9044 1.18909C55.9044 1.18909 55.8796 1.20122 55.8796 1.21335C55.8796 1.21335 55.8796 1.21335 55.8671 1.21335C55.8547 1.22549 55.8299 1.23762 55.8175 1.24975C55.8175 1.24975 55.8175 1.24975 55.805 1.24975C55.805 1.24975 55.7802 1.26189 55.7802 1.27402C55.7802 1.27402 55.7802 1.27402 55.7678 1.28615C55.7554 1.29829 55.7305 1.31042 55.7181 1.33469C55.7181 1.33469 55.7181 1.33469 55.7057 1.33469C55.7057 1.33469 55.6933 1.34682 55.6809 1.35896C55.6809 1.35896 55.6809 1.35896 55.6684 1.37109C55.656 1.38322 55.6312 1.40749 55.6188 1.41962C55.6188 1.41962 55.6064 1.43176 55.5939 1.44389H55.5815C55.5815 1.44389 55.5691 1.48029 55.5567 1.48029C55.5567 1.48029 55.5567 1.48029 55.5443 1.49242C55.5319 1.50456 55.5194 1.51669 55.507 1.52883H55.4946C55.4946 1.52883 55.4822 1.56523 55.4698 1.56523C55.4698 1.56523 55.4698 1.56523 55.4573 1.57736C55.4449 1.58949 55.4325 1.60163 55.4201 1.61376C55.4201 1.61376 55.4201 1.61376 55.4077 1.62589C55.4077 1.62589 55.3953 1.63803 55.3828 1.65016C55.3828 1.65016 55.3828 1.66229 55.3704 1.67443C55.3704 1.68656 55.3456 1.69869 55.3332 1.71083C55.3332 1.71083 55.3332 1.72296 55.3208 1.7351C55.3208 1.7351 55.3083 1.74723 55.2959 1.75936C55.2959 1.75936 55.2959 1.7715 55.2835 1.78363C55.2835 1.79576 55.2587 1.8079 55.2463 1.82003C55.2463 1.82003 55.2462 1.83216 55.2338 1.8443C55.2338 1.8443 55.2214 1.85643 55.209 1.86856C55.209 1.86856 55.209 1.8807 55.1966 1.89283C55.1966 1.90496 55.1717 1.9171 55.1593 1.92923C55.1593 1.92923 55.1469 1.94137 55.1345 1.9535C55.1345 1.9535 55.1221 1.96563 55.1097 1.97777C55.1097 1.97777 55.1097 1.9899 55.0972 2.00203C55.0972 2.00203 55.0848 2.01417 55.0724 2.0263C55.0724 2.0263 55.0476 2.05057 55.0476 2.0627L55.0227 2.08697C55.0227 2.08697 55.0227 2.0991 55.0103 2.11123C55.0103 2.11123 54.9979 2.12337 54.9855 2.1355C54.9855 2.14764 54.9606 2.15977 54.9606 2.1719C54.9606 2.1719 54.9606 2.18404 54.9482 2.19617C54.9482 2.19617 54.9482 2.2083 54.9358 2.22044C54.9358 2.22044 54.9358 2.23257 54.9234 2.2447C54.9234 2.2447 54.911 2.26897 54.8986 2.2811C54.8986 2.2811 54.8861 2.30537 54.8737 2.3175C54.8737 2.3175 54.8737 2.32964 54.8613 2.34177C54.8613 2.34177 54.8613 2.35391 54.8489 2.36604C54.8489 2.36604 54.8365 2.39031 54.824 2.39031C54.824 2.40244 54.8116 2.41457 54.7992 2.42671C54.7992 2.42671 54.7992 2.43884 54.7868 2.45097C54.7868 2.45097 54.7868 2.46311 54.7744 2.47524C54.7744 2.47524 54.7744 2.48737 54.762 2.49951C54.762 2.51164 54.7495 2.52377 54.7371 2.53591C54.7371 2.53591 54.7371 2.56018 54.7247 2.56018C54.7247 2.56018 54.7247 2.57231 54.7123 2.58444V2.60871C54.7123 2.60871 54.6875 2.63298 54.675 2.64511C54.675 2.64511 54.6626 2.66938 54.6502 2.68151C54.6502 2.68151 54.6502 2.69364 54.6378 2.70578V2.73005C54.6378 2.73005 54.6129 2.74218 54.6129 2.75431C54.6129 2.76645 54.6005 2.77858 54.5881 2.79071C54.5881 2.79071 54.5881 2.80285 54.5757 2.81498C54.5757 2.81498 54.5757 2.82711 54.5633 2.83925C54.5633 2.83925 54.5633 2.85138 54.5509 2.86351C54.5509 2.87565 54.5384 2.88778 54.526 2.91205C54.526 2.91205 54.526 2.92418 54.5136 2.93632C54.5136 2.93632 54.5136 2.96058 54.5012 2.96058C54.5012 2.96058 54.5012 2.97272 54.4888 2.98485C54.4888 2.99698 54.4764 3.00912 54.4639 3.03338L47.1623 15.4096L68.1482 50.9851C68.6077 51.6889 68.9181 52.4897 69.0299 53.3633C69.0671 53.6666 69.0795 53.9578 69.0671 54.2612C69.005 55.9599 68.1979 57.4644 66.9313 58.4715C66.0745 59.1631 65.0065 59.6121 63.802 59.7213C63.802 59.7213 63.7896 59.7213 63.7772 59.7213C63.6282 59.7334 63.4792 59.7455 63.3302 59.7455H63.3053C63.3053 59.7455 63.2929 59.7455 63.2805 59.7455H88.3145C88.3145 59.7455 88.3269 59.7455 88.3394 59.7455H88.3642C88.5132 59.7455 88.6622 59.7455 88.8112 59.7213C88.8112 59.7213 88.8236 59.7213 88.8361 59.7213C90.0406 59.6121 91.1085 59.151 91.9653 58.4715C93.2195 57.4644 94.0391 55.9599 94.1012 54.2612C94.1012 53.97 94.1012 53.6666 94.0639 53.3633L93.8652 53.5331Z" fill="#D1FF79"/>
<path d="M63.1191 59.9033C63.2681 59.9033 63.4171 59.9033 63.5661 59.879C63.5661 59.879 63.5785 59.879 63.5909 59.879C64.7954 59.7698 65.8634 59.3087 66.7202 58.6292C67.9744 57.6222 68.7939 56.1176 68.856 54.4189C68.856 54.1277 68.856 53.8244 68.8188 53.521C68.707 52.6474 68.3966 51.8466 67.9371 51.1428L46.9512 15.5673L25.9654 51.1307C25.4687 51.8709 25.1582 52.7323 25.0589 53.6666C25.0589 53.6666 25.0589 53.6788 25.0589 53.6909C25.0589 53.6909 25.0589 53.7152 25.0589 53.7273C25.0465 53.8972 25.034 54.067 25.034 54.2248C25.034 54.2248 25.034 54.2369 25.034 54.249V54.2733C25.0465 56.0448 25.8909 57.6222 27.2071 58.6535C28.0391 59.3087 29.0698 59.7577 30.237 59.8669C30.2495 59.8669 30.2743 59.8669 30.2867 59.8669C30.4481 59.879 30.6096 59.8911 30.771 59.8911C30.771 59.8911 30.7958 59.8911 30.8083 59.8911C30.8083 59.8911 30.8083 59.8911 30.8207 59.8911H63.0321C63.0321 59.8911 63.0445 59.8911 63.057 59.8911H63.0818L63.1191 59.9033Z" fill="#3D473C"/>
</svg>
